<?xml version="1.0" encoding="UTF-8" standalone="no"?>
<!DOCTYPE svg PUBLIC "-//W3C//DTD SVG 1.1//EN" "http://www.w3.org/Graphics/SVG/1.1/DTD/svg11.dtd">
<svg
  width="100%"
  height="100%"
  viewBox="0 0 2000 556"
  version="1.1"
  xmlns="http://www.w3.org/2000/svg"
  xmlns:xlink="http://www.w3.org/1999/xlink"
  xml:space="preserve"
  xmlns:serif="http://www.serif.com/"
  style="fill-rule:evenodd;clip-rule:evenodd;stroke-linejoin:round;stroke-miterlimit:1.41421;"><rect id="Plan-de-travail1" serif:id="Plan de travail1" x="0" y="0" width="2000" height="555.836" style="fill:none;"/>
  <clipPath id="_clip1"><rect x="0" y="0" width="2000" height="555.836"/></clipPath>
  <g clip-path="url(#_clip1)">
    <g>
      <g><path
        d="M378.261,399.073c-6.982,-49.569 -49.57,-57.249 -157.786,-69.118c-75.402,-8.378 -124.273,-27.229 -94.95,-45.381c23.737,6.982 48.871,8.378 69.816,6.284c61.439,-5.586 146.615,-46.079 141.728,-131.954c-2.792,-47.475 -32.814,-77.496 -70.515,-94.252c3.491,-7.68 7.68,-14.662 11.869,-18.851c16.756,-15.36 25.832,4.189 42.588,6.284c18.153,2.094 33.512,-14.662 25.833,-34.909c-6.284,-17.454 -31.418,-23.737 -51.665,-8.378c-10.472,7.68 -23.737,28.625 -30.719,55.155c-29.323,-12.567 -62.835,-17.454 -89.365,-14.661c-61.439,5.585 -148.012,43.984 -141.728,132.652c4.189,56.551 43.984,87.969 88.667,101.234c-18.152,4.887 -41.192,10.472 -53.759,24.436c-20.247,23.737 -15.36,60.74 13.963,78.194c53.759,31.418 180.127,26.531 216.432,43.985c32.116,15.359 24.436,66.326 -42.588,101.234c-71.213,37.003 -177.334,32.116 -184.316,-50.966c-2.793,-38.399 13.963,-60.741 43.286,-64.232c27.927,-2.792 56.552,6.982 56.552,6.982l0,-6.982c-16.756,-2.094 -35.607,-2.792 -53.759,-2.792c-50.966,1.396 -124.972,11.869 -117.292,72.609c8.378,65.628 149.408,83.78 231.791,60.741c84.478,-23.738 154.295,-83.082 145.917,-147.314Zm-203.166,-346.988c45.38,-3.491 60.042,40.493 66.325,110.31c5.586,70.515 -0.698,120.783 -46.079,125.67c-45.38,3.491 -60.042,-39.796 -66.325,-109.612c-5.586,-70.515 0.698,-121.481 46.079,-126.368Z"
        style="fill:#001e60;fill-rule:nonzero;"/><path
        d="M1513.91,158.111c0,-89.365 -48.872,-128.462 -123.576,-128.462c-60.042,0 -87.969,26.53 -111.008,69.816c-17.454,-48.173 -58.646,-69.816 -113.801,-69.816c-55.156,0 -78.893,19.548 -99.838,51.664c-0.141,-0.388 0,-44.683 0,-44.683l-106.82,0l0,344.894l106.122,0c0,0 -0.699,-278.568 0,-293.229c16.057,-31.418 43.984,-51.665 71.911,-51.665c50.268,0 46.777,60.741 46.777,108.216l0,236.678l105.423,0c0,0 0,-23.737 0,-80.289l0,-143.124c0,-20.945 -2.793,-39.097 -8.378,-55.155c17.454,-38.399 48.872,-66.326 80.987,-66.326c50.268,0 47.476,60.741 47.476,108.216l0,156.389c-0.698,56.552 0,80.289 0,80.289l104.725,0c0,0 0,-23.039 0,-80.289l0,-143.124Z"
        style="fill:#001e60;fill-rule:nonzero;"/><path
        d="M1680.24,82.011c0,-34.21 22.341,-52.362 57.948,-52.362c30.021,0 55.155,9.774 67.722,23.039c16.756,18.851 -4.887,32.814 -6.982,53.061c-1.396,20.247 19.549,34.21 37.701,27.228c20.247,-6.981 23.738,-34.908 8.378,-57.948c-13.265,-19.548 -53.061,-48.871 -120.783,-48.871c-64.231,0 -120.084,28.625 -123.575,90.761c-7.68,136.143 206.657,113.103 201.77,206.658c-2.095,37.002 -35.607,57.947 -80.987,57.947c-37.701,0 -68.421,-13.963 -81.686,-29.323c-18.152,-19.548 6.982,-34.21 8.378,-54.457c1.396,-18.85 -15.36,-34.908 -37.701,-27.926c-18.152,6.283 -23.738,35.606 -7.68,58.646c13.265,19.548 52.363,55.853 123.576,55.853c83.082,0 142.426,-34.908 150.804,-96.347c18.85,-141.728 -196.883,-128.462 -196.883,-205.959Z"
        style="fill:#001e60;fill-rule:nonzero;"/><path d="M1960.2,305.424c-21.644,0 -39.796,18.153 -39.796,39.796c0,22.341 18.152,39.795 39.796,39.795c22.341,0 39.795,-17.454 39.795,-39.795c0,-21.643 -17.454,-39.796 -39.795,-39.796Z" style="fill:none;stroke:#001e60;stroke-width:2.58px;"/></g>
      <g><path
        d="M718.436,379.477c0,0 0.684,-270.242 0,-309.54c-0.518,-29.737 -90.544,-50.619 -121.724,-50.619c-74.704,0 -113.801,41.89 -124.972,67.722c-11.869,28.625 1.396,54.457 22.341,58.646c24.436,4.887 39.796,-16.058 34.21,-34.908c-5.585,-19.549 -27.926,-28.625 -18.152,-50.966c10.473,-21.643 39.097,-37.701 84.478,-37.701c50.966,0 47.476,44.682 47.476,104.027c0,18.152 0,41.191 0,64.231c-6.982,5.585 -16.756,10.472 -30.022,15.36c-69.816,23.737 -166.163,13.265 -169.654,99.837c-2.793,76.101 86.573,82.384 138.935,66.326c29.323,-8.378 47.475,-31.005 60.741,-58.932c0.136,0.683 0,66.517 0,66.517l76.343,0Zm-125.215,-15.265c-42.588,21.644 -60.741,-11.17 -55.853,-74.703c4.189,-63.534 43.984,-69.817 78.194,-82.384c11.171,-4.189 20.247,-8.378 26.531,-12.567c-0.109,0.072 0.312,113.137 0,113.801c-11.171,23.738 -25.134,44.683 -48.872,55.853Z"
        style="fill:none;stroke:#001e60;stroke-width:2.58px;"/><path
        d="M818.604,27.683c-28.625,2.793 -80.987,40.494 -99.838,100.536c-0.059,5.064 0,10.473 0,9.775c11.171,-37.701 38.4,-76.101 62.137,-83.082c25.134,-7.68 11.171,26.53 37.701,43.984c16.058,9.775 49.57,6.284 55.853,-20.247c8.378,-31.417 -14.661,-54.457 -55.853,-50.966Z"
        style="fill:none;stroke:#001e60;stroke-width:2.58px;"/></g>
    </g>
  </g>
</svg>
